<svg xmlns="http://www.w3.org/2000/svg" viewBox="0 0 1500 1500">
  <rect width="1500" height="1500" fill="#FAF7F2" rx="240" ry="240"/>
  <g transform="translate(108, 540)" fill="#141412">
    <path d="M 117.789062 327.355469 L 93.074219 327.355469 C 92.953125 327.355469 92.847656 327.3125 92.761719 327.226562 C 92.675781 327.140625 92.632812 327.035156 92.632812 326.914062 L 92.632812 106.992188 C 92.632812 106.894531 92.667969 106.808594 92.738281 106.738281 C 92.808594 106.667969 92.894531 106.628906 92.996094 106.628906 C 169.925781 106.652344 212.191406 106.644531 219.789062 106.609375 C 226.964844 106.574219 232.542969 106.835938 236.523438 107.390625 C 276.90625 113.03125 307.753906 145.078125 312.875 185.277344 C 313.097656 187.023438 313.207031 188.289062 313.203125 189.074219 C 313.179688 190.800781 313.546875 192.304688 313.546875 194.144531 C 313.554688 238.332031 313.554688 282.535156 313.546875 326.757812 C 313.546875 326.925781 313.488281 327.066406 313.375 327.183594 C 313.257812 327.296875 313.117188 327.355469 312.949219 327.355469 L 288.578125 327.355469 C 288.417969 327.355469 288.285156 327.300781 288.171875 327.1875 C 288.0625 327.078125 288.003906 326.941406 288 326.78125 C 288 321.554688 287.996094 281.597656 287.988281 206.917969 C 287.980469 203.71875 287.609375 199.347656 286.871094 193.804688 C 286.113281 188.144531 284.761719 182.636719 282.820312 177.273438 C 273.261719 150.933594 251.367188 136.671875 224.332031 132.847656 C 220.378906 132.285156 211.242188 132.015625 196.921875 132.035156 C 152.332031 132.082031 126.285156 132.085938 118.785156 132.042969 C 118.613281 132.039062 118.464844 132.097656 118.34375 132.21875 C 118.21875 132.339844 118.15625 132.484375 118.15625 132.65625 L 118.15625 326.980469 C 118.15625 327.085938 118.121094 327.171875 118.050781 327.246094 C 117.976562 327.320312 117.890625 327.355469 117.789062 327.355469 Z"/>
    <path d="M 729.070312 106.625 L 753.777344 106.625 C 753.898438 106.625 754.003906 106.667969 754.089844 106.753906 C 754.175781 106.839844 754.21875 106.945312 754.21875 107.066406 L 754.210938 326.914062 C 754.210938 327.015625 754.175781 327.097656 754.105469 327.167969 C 754.035156 327.242188 753.949219 327.277344 753.851562 327.277344 C 676.941406 327.257812 634.691406 327.261719 627.097656 327.296875 C 619.925781 327.332031 614.347656 327.070312 610.367188 326.515625 C 569.996094 320.875 539.164062 288.835938 534.042969 248.652344 C 533.820312 246.902344 533.714844 245.636719 533.71875 244.855469 C 533.738281 243.128906 533.371094 241.621094 533.371094 239.785156 C 533.367188 195.609375 533.367188 151.421875 533.378906 107.214844 C 533.378906 107.050781 533.4375 106.90625 533.554688 106.792969 C 533.671875 106.675781 533.8125 106.617188 533.976562 106.617188 L 558.34375 106.617188 C 558.5 106.617188 558.632812 106.671875 558.746094 106.785156 C 558.859375 106.894531 558.914062 107.03125 558.917969 107.191406 C 558.917969 112.414062 558.921875 152.355469 558.925781 227.019531 C 558.929688 230.214844 559.300781 234.582031 560.039062 240.125 C 560.796875 245.785156 562.148438 251.292969 564.09375 256.644531 C 573.644531 282.980469 595.527344 297.242188 622.558594 301.066406 C 626.511719 301.628906 635.644531 301.898438 649.957031 301.878906 C 694.535156 301.832031 720.574219 301.828125 728.074219 301.871094 C 728.246094 301.875 728.394531 301.816406 728.519531 301.695312 C 728.640625 301.574219 728.703125 301.429688 728.703125 301.257812 L 728.703125 107 C 728.703125 106.894531 728.738281 106.808594 728.8125 106.734375 C 728.882812 106.660156 728.96875 106.625 729.070312 106.625 Z"/>
    <path d="M 1193.753906 131.828125 C 1193.753906 131.929688 1193.71875 132.015625 1193.644531 132.089844 C 1193.570312 132.160156 1193.480469 132.195312 1193.378906 132.195312 L 999.398438 132.191406 C 999.226562 132.191406 999.082031 132.25 998.960938 132.375 C 998.839844 132.496094 998.78125 132.644531 998.785156 132.816406 C 998.828125 140.308594 998.828125 166.320312 998.777344 210.851562 C 998.757812 225.148438 999.027344 234.273438 999.582031 238.21875 C 1003.40625 265.21875 1017.636719 287.078125 1043.9375 296.621094 C 1049.285156 298.566406 1054.785156 299.917969 1060.433594 300.675781 C 1065.96875 301.410156 1070.335938 301.777344 1073.527344 301.785156 C 1148.078125 301.796875 1187.960938 301.804688 1193.179688 301.804688 C 1193.339844 301.808594 1193.472656 301.863281 1193.585938 301.976562 C 1193.699219 302.089844 1193.753906 302.222656 1193.753906 302.382812 L 1193.753906 326.714844 C 1193.753906 326.878906 1193.695312 327.019531 1193.578125 327.136719 C 1193.460938 327.253906 1193.320312 327.3125 1193.15625 327.3125 C 1149.011719 327.316406 1104.882812 327.316406 1060.773438 327.3125 C 1058.941406 327.3125 1057.4375 326.945312 1055.710938 326.964844 C 1054.925781 326.96875 1053.664062 326.863281 1051.921875 326.640625 C 1011.796875 321.523438 979.808594 290.71875 974.175781 250.394531 C 973.621094 246.417969 973.359375 240.847656 973.394531 233.6875 C 973.425781 226.097656 973.433594 183.890625 973.414062 107.066406 C 973.414062 106.964844 973.449219 106.882812 973.519531 106.8125 C 973.59375 106.738281 973.675781 106.703125 973.777344 106.703125 L 1193.3125 106.703125 C 1193.433594 106.703125 1193.539062 106.746094 1193.625 106.835938 C 1193.710938 106.921875 1193.753906 107.023438 1193.753906 107.148438 Z"/>
    <path d="M 1053.582031 204.945312 L 1193.371094 204.945312 C 1193.515625 204.945312 1193.640625 204.996094 1193.742188 205.097656 C 1193.84375 205.203125 1193.894531 205.324219 1193.894531 205.46875 L 1193.894531 228.207031 C 1193.894531 228.351562 1193.84375 228.476562 1193.742188 228.578125 C 1193.640625 228.679688 1193.515625 228.730469 1193.371094 228.730469 L 1053.582031 228.730469 C 1053.4375 228.730469 1053.316406 228.679688 1053.214844 228.578125 C 1053.109375 228.476562 1053.058594 228.351562 1053.058594 228.207031 L 1053.058594 205.46875 C 1053.058594 205.324219 1053.109375 205.203125 1053.214844 205.097656 C 1053.316406 204.996094 1053.4375 204.945312 1053.582031 204.945312 Z"/>
  </g>
</svg>
