<svg xmlns="http://www.w3.org/2000/svg" xmlns:xlink="http://www.w3.org/1999/xlink" width="1920" zoomAndPan="magnify" viewBox="0 0 1440 809.999993" height="1080" preserveAspectRatio="xMidYMid meet" version="1.0"><defs><g/><clipPath id="707809ba54"><path d="M 80 428 L 1255 428 L 1255 587.761719 L 80 587.761719 Z M 80 428 " clip-rule="nonzero"/></clipPath><clipPath id="497bc75749"><rect x="0" width="1175" y="0" height="160"/></clipPath><clipPath id="086deccbe0"><rect x="0" width="1343" y="0" height="588"/></clipPath></defs><g transform="matrix(1, 0, 0, 1, 49, 102)"><g clip-path="url(#086deccbe0)"><path fill="#000000" d="M 117.789062 327.355469 L 93.074219 327.355469 C 92.953125 327.355469 92.847656 327.3125 92.761719 327.226562 C 92.675781 327.140625 92.632812 327.035156 92.632812 326.914062 L 92.632812 106.992188 C 92.632812 106.894531 92.667969 106.808594 92.738281 106.738281 C 92.808594 106.667969 92.894531 106.628906 92.996094 106.628906 C 169.925781 106.652344 212.191406 106.644531 219.789062 106.609375 C 226.964844 106.574219 232.542969 106.835938 236.523438 107.390625 C 276.90625 113.03125 307.753906 145.078125 312.875 185.277344 C 313.097656 187.023438 313.207031 188.289062 313.203125 189.074219 C 313.179688 190.800781 313.546875 192.304688 313.546875 194.144531 C 313.554688 238.332031 313.554688 282.535156 313.546875 326.757812 C 313.546875 326.925781 313.488281 327.066406 313.375 327.183594 C 313.257812 327.296875 313.117188 327.355469 312.949219 327.355469 L 288.578125 327.355469 C 288.417969 327.355469 288.285156 327.300781 288.171875 327.1875 C 288.0625 327.078125 288.003906 326.941406 288 326.78125 C 288 321.554688 287.996094 281.597656 287.988281 206.917969 C 287.980469 203.71875 287.609375 199.347656 286.871094 193.804688 C 286.113281 188.144531 284.761719 182.636719 282.820312 177.273438 C 273.261719 150.933594 251.367188 136.671875 224.332031 132.847656 C 220.378906 132.285156 211.242188 132.015625 196.921875 132.035156 C 152.332031 132.082031 126.285156 132.085938 118.785156 132.042969 C 118.613281 132.039062 118.464844 132.097656 118.34375 132.21875 C 118.21875 132.339844 118.15625 132.484375 118.15625 132.65625 L 118.15625 326.980469 C 118.15625 327.085938 118.121094 327.171875 118.050781 327.246094 C 117.976562 327.320312 117.890625 327.355469 117.789062 327.355469 Z M 117.789062 327.355469 " fill-opacity="1" fill-rule="nonzero"/><path fill="#000000" d="M 729.070312 106.625 L 753.777344 106.625 C 753.898438 106.625 754.003906 106.667969 754.089844 106.753906 C 754.175781 106.839844 754.21875 106.945312 754.21875 107.066406 L 754.210938 326.914062 C 754.210938 327.015625 754.175781 327.097656 754.105469 327.167969 C 754.035156 327.242188 753.949219 327.277344 753.851562 327.277344 C 676.941406 327.257812 634.691406 327.261719 627.097656 327.296875 C 619.925781 327.332031 614.347656 327.070312 610.367188 326.515625 C 569.996094 320.875 539.164062 288.835938 534.042969 248.652344 C 533.820312 246.902344 533.714844 245.636719 533.71875 244.855469 C 533.738281 243.128906 533.371094 241.621094 533.371094 239.785156 C 533.367188 195.609375 533.367188 151.421875 533.378906 107.214844 C 533.378906 107.050781 533.4375 106.90625 533.554688 106.792969 C 533.671875 106.675781 533.8125 106.617188 533.976562 106.617188 L 558.34375 106.617188 C 558.5 106.617188 558.632812 106.671875 558.746094 106.785156 C 558.859375 106.894531 558.914062 107.03125 558.917969 107.191406 C 558.917969 112.414062 558.921875 152.355469 558.925781 227.019531 C 558.929688 230.214844 559.300781 234.582031 560.039062 240.125 C 560.796875 245.785156 562.148438 251.292969 564.09375 256.644531 C 573.644531 282.980469 595.527344 297.242188 622.558594 301.066406 C 626.511719 301.628906 635.644531 301.898438 649.957031 301.878906 C 694.535156 301.832031 720.574219 301.828125 728.074219 301.871094 C 728.246094 301.875 728.394531 301.816406 728.519531 301.695312 C 728.640625 301.574219 728.703125 301.429688 728.703125 301.257812 L 728.703125 107 C 728.703125 106.894531 728.738281 106.808594 728.8125 106.734375 C 728.882812 106.660156 728.96875 106.625 729.070312 106.625 Z M 729.070312 106.625 " fill-opacity="1" fill-rule="nonzero"/><path fill="#000000" d="M 1193.753906 131.828125 C 1193.753906 131.929688 1193.71875 132.015625 1193.644531 132.089844 C 1193.570312 132.160156 1193.480469 132.195312 1193.378906 132.195312 L 999.398438 132.191406 C 999.226562 132.191406 999.082031 132.25 998.960938 132.375 C 998.839844 132.496094 998.78125 132.644531 998.785156 132.816406 C 998.828125 140.308594 998.828125 166.320312 998.777344 210.851562 C 998.757812 225.148438 999.027344 234.273438 999.582031 238.21875 C 1003.40625 265.21875 1017.636719 287.078125 1043.9375 296.621094 C 1049.285156 298.566406 1054.785156 299.917969 1060.433594 300.675781 C 1065.96875 301.410156 1070.335938 301.777344 1073.527344 301.785156 C 1148.078125 301.796875 1187.960938 301.804688 1193.179688 301.804688 C 1193.339844 301.808594 1193.472656 301.863281 1193.585938 301.976562 C 1193.699219 302.089844 1193.753906 302.222656 1193.753906 302.382812 L 1193.753906 326.714844 C 1193.753906 326.878906 1193.695312 327.019531 1193.578125 327.136719 C 1193.460938 327.253906 1193.320312 327.3125 1193.15625 327.3125 C 1149.011719 327.316406 1104.882812 327.316406 1060.773438 327.3125 C 1058.941406 327.3125 1057.4375 326.945312 1055.710938 326.964844 C 1054.925781 326.96875 1053.664062 326.863281 1051.921875 326.640625 C 1011.796875 321.523438 979.808594 290.71875 974.175781 250.394531 C 973.621094 246.417969 973.359375 240.847656 973.394531 233.6875 C 973.425781 226.097656 973.433594 183.890625 973.414062 107.066406 C 973.414062 106.964844 973.449219 106.882812 973.519531 106.8125 C 973.59375 106.738281 973.675781 106.703125 973.777344 106.703125 L 1193.3125 106.703125 C 1193.433594 106.703125 1193.539062 106.746094 1193.625 106.835938 C 1193.710938 106.921875 1193.753906 107.023438 1193.753906 107.148438 Z M 1193.753906 131.828125 " fill-opacity="1" fill-rule="nonzero"/><path fill="#000000" d="M 1053.582031 204.945312 L 1193.371094 204.945312 C 1193.515625 204.945312 1193.640625 204.996094 1193.742188 205.097656 C 1193.84375 205.203125 1193.894531 205.324219 1193.894531 205.46875 L 1193.894531 228.207031 C 1193.894531 228.351562 1193.84375 228.476562 1193.742188 228.578125 C 1193.640625 228.679688 1193.515625 228.730469 1193.371094 228.730469 L 1053.582031 228.730469 C 1053.4375 228.730469 1053.316406 228.679688 1053.214844 228.578125 C 1053.109375 228.476562 1053.058594 228.351562 1053.058594 228.207031 L 1053.058594 205.46875 C 1053.058594 205.324219 1053.109375 205.203125 1053.214844 205.097656 C 1053.316406 204.996094 1053.4375 204.945312 1053.582031 204.945312 Z M 1053.582031 204.945312 " fill-opacity="1" fill-rule="nonzero"/><g clip-path="url(#707809ba54)"><g transform="matrix(1, 0, 0, 1, 80, 428)"><g clip-path="url(#497bc75749)"><g fill="#000000" fill-opacity="1"><g transform="translate(0.176191, 120.669846)"><g><path d="M 14.75 -112.96875 L 57.59375 -112.96875 C 65 -112.96875 71.394531 -111.484375 76.78125 -108.515625 C 82.175781 -105.554688 86.351562 -101.484375 89.3125 -96.296875 C 92.28125 -91.117188 93.765625 -85.25 93.765625 -78.6875 C 93.765625 -72.132812 92.28125 -66.289062 89.3125 -61.15625 C 86.351562 -56.03125 82.175781 -51.984375 76.78125 -49.015625 C 71.394531 -46.054688 65 -44.578125 57.59375 -44.578125 L 31.890625 -44.578125 L 31.890625 0 L 14.75 0 Z M 56.640625 -97.578125 L 31.890625 -97.578125 L 31.890625 -59.96875 L 56.640625 -59.96875 C 62.671875 -59.96875 67.507812 -61.609375 71.15625 -64.890625 C 74.800781 -68.171875 76.625 -72.769531 76.625 -78.6875 C 76.625 -84.71875 74.800781 -89.375 71.15625 -92.65625 C 67.507812 -95.9375 62.671875 -97.578125 56.640625 -97.578125 Z M 56.640625 -97.578125 "/></g></g></g><g fill="#000000" fill-opacity="1"><g transform="translate(150.558563, 120.669846)"><g><path d="M 14.75 -112.96875 L 58.546875 -112.96875 C 65.734375 -112.96875 71.945312 -111.535156 77.1875 -108.671875 C 82.425781 -105.816406 86.472656 -101.929688 89.328125 -97.015625 C 92.179688 -92.097656 93.609375 -86.414062 93.609375 -79.96875 C 93.609375 -71.925781 91.4375 -65.363281 87.09375 -60.28125 C 82.757812 -55.207031 77.421875 -51.773438 71.078125 -49.984375 L 97.09375 0 L 77.109375 0 L 53.3125 -47.59375 L 31.890625 -47.59375 L 31.890625 0 L 14.75 0 Z M 57.28125 -97.578125 L 31.890625 -97.578125 L 31.890625 -62.1875 L 57.28125 -62.1875 C 62.988281 -62.1875 67.613281 -63.742188 71.15625 -66.859375 C 74.695312 -69.984375 76.46875 -74.296875 76.46875 -79.796875 C 76.46875 -85.410156 74.695312 -89.773438 71.15625 -92.890625 C 67.613281 -96.015625 62.988281 -97.578125 57.28125 -97.578125 Z M 57.28125 -97.578125 "/></g></g></g><g fill="#000000" fill-opacity="1"><g transform="translate(305.064954, 120.669846)"><g><path d="M 51.25 -113.921875 C 57.488281 -113.921875 63.015625 -112.941406 67.828125 -110.984375 C 72.640625 -109.023438 76.84375 -106.191406 80.4375 -102.484375 C 84.132812 -98.785156 86.773438 -94.898438 88.359375 -90.828125 C 89.953125 -86.753906 90.929688 -81.992188 91.296875 -76.546875 C 91.671875 -71.097656 91.859375 -64.410156 91.859375 -56.484375 C 91.859375 -48.648438 91.671875 -41.984375 91.296875 -36.484375 C 90.929688 -30.984375 89.953125 -26.195312 88.359375 -22.125 C 86.773438 -18.0625 84.132812 -14.175781 80.4375 -10.46875 C 76.84375 -6.875 72.640625 -4.070312 67.828125 -2.0625 C 63.015625 -0.0507812 57.488281 0.953125 51.25 0.953125 C 45.113281 0.953125 39.640625 -0.0507812 34.828125 -2.0625 C 30.015625 -4.070312 25.753906 -6.875 22.046875 -10.46875 C 18.347656 -14.175781 15.703125 -18.0625 14.109375 -22.125 C 12.523438 -26.195312 11.546875 -30.984375 11.171875 -36.484375 C 10.804688 -41.984375 10.625 -48.648438 10.625 -56.484375 C 10.625 -64.410156 10.804688 -71.097656 11.171875 -76.546875 C 11.546875 -81.992188 12.523438 -86.753906 14.109375 -90.828125 C 15.703125 -94.898438 18.347656 -98.785156 22.046875 -102.484375 C 25.753906 -106.191406 30.015625 -109.023438 34.828125 -110.984375 C 39.640625 -112.941406 45.113281 -113.921875 51.25 -113.921875 Z M 51.25 -98.53125 C 44.375 -98.53125 38.765625 -96.253906 34.421875 -91.703125 C 32.628906 -89.691406 31.226562 -87.390625 30.21875 -84.796875 C 29.21875 -82.210938 28.554688 -78.722656 28.234375 -74.328125 C 27.921875 -69.941406 27.765625 -63.992188 27.765625 -56.484375 C 27.765625 -49.078125 27.921875 -43.175781 28.234375 -38.78125 C 28.554688 -34.394531 29.21875 -30.90625 30.21875 -28.3125 C 31.226562 -25.726562 32.628906 -23.429688 34.421875 -21.421875 C 38.867188 -16.765625 44.476562 -14.4375 51.25 -14.4375 C 58.019531 -14.4375 63.625 -16.765625 68.0625 -21.421875 C 69.96875 -23.429688 71.394531 -25.703125 72.34375 -28.234375 C 73.300781 -30.773438 73.9375 -34.265625 74.25 -38.703125 C 74.570312 -43.148438 74.734375 -49.078125 74.734375 -56.484375 C 74.734375 -63.992188 74.570312 -69.941406 74.25 -74.328125 C 73.9375 -78.722656 73.300781 -82.238281 72.34375 -84.875 C 71.394531 -87.519531 69.96875 -89.796875 68.0625 -91.703125 C 63.726562 -96.253906 58.125 -98.53125 51.25 -98.53125 Z M 51.25 -98.53125 "/></g></g></g><g fill="#000000" fill-opacity="1"><g transform="translate(458.143766, 120.669846)"><g><path d="M 67.109375 -112.96875 L 67.109375 -35.703125 C 67.109375 -27.867188 65.414062 -21.226562 62.03125 -15.78125 C 58.644531 -10.332031 54.125 -6.179688 48.46875 -3.328125 C 42.8125 -0.472656 36.492188 0.953125 29.515625 0.953125 C 23.691406 0.953125 18.640625 0.109375 14.359375 -1.578125 C 10.078125 -3.273438 5.976562 -6.082031 2.0625 -10 L 13.484375 -21.265625 C 15.492188 -19.253906 17.632812 -17.613281 19.90625 -16.34375 C 22.1875 -15.070312 25.390625 -14.4375 29.515625 -14.4375 C 35.859375 -14.4375 40.851562 -16.335938 44.5 -20.140625 C 48.15625 -23.953125 49.984375 -29.5625 49.984375 -36.96875 L 49.984375 -112.96875 Z M 67.109375 -112.96875 "/></g></g></g><g fill="#000000" fill-opacity="1"><g transform="translate(588.857861, 120.669846)"><g><path d="M 86.9375 -112.96875 L 86.9375 -97.578125 L 31.890625 -97.578125 L 31.890625 -64.578125 L 78.859375 -64.578125 L 78.859375 -49.1875 L 31.890625 -49.1875 L 31.890625 -15.390625 L 86.9375 -15.390625 L 86.9375 0 L 14.75 0 L 14.75 -112.96875 Z M 86.9375 -112.96875 "/></g></g></g><g fill="#000000" fill-opacity="1"><g transform="translate(735.116213, 120.669846)"><g><path d="M 84.09375 -112.96875 L 84.09375 -97.578125 L 52.984375 -97.578125 L 52.984375 0 L 35.859375 0 L 35.859375 -97.578125 L 4.765625 -97.578125 L 4.765625 -112.96875 Z M 84.09375 -112.96875 "/></g></g></g><g fill="#000000" fill-opacity="1"><g transform="translate(874.554207, 120.669846)"><g><path d="M 51.25 -113.921875 C 57.488281 -113.921875 63.015625 -112.941406 67.828125 -110.984375 C 72.640625 -109.023438 76.84375 -106.191406 80.4375 -102.484375 C 84.132812 -98.785156 86.773438 -94.898438 88.359375 -90.828125 C 89.953125 -86.753906 90.929688 -81.992188 91.296875 -76.546875 C 91.671875 -71.097656 91.859375 -64.410156 91.859375 -56.484375 C 91.859375 -48.648438 91.671875 -41.984375 91.296875 -36.484375 C 90.929688 -30.984375 89.953125 -26.195312 88.359375 -22.125 C 86.773438 -18.0625 84.132812 -14.175781 80.4375 -10.46875 C 76.84375 -6.875 72.640625 -4.070312 67.828125 -2.0625 C 63.015625 -0.0507812 57.488281 0.953125 51.25 0.953125 C 45.113281 0.953125 39.640625 -0.0507812 34.828125 -2.0625 C 30.015625 -4.070312 25.753906 -6.875 22.046875 -10.46875 C 18.347656 -14.175781 15.703125 -18.0625 14.109375 -22.125 C 12.523438 -26.195312 11.546875 -30.984375 11.171875 -36.484375 C 10.804688 -41.984375 10.625 -48.648438 10.625 -56.484375 C 10.625 -64.410156 10.804688 -71.097656 11.171875 -76.546875 C 11.546875 -81.992188 12.523438 -86.753906 14.109375 -90.828125 C 15.703125 -94.898438 18.347656 -98.785156 22.046875 -102.484375 C 25.753906 -106.191406 30.015625 -109.023438 34.828125 -110.984375 C 39.640625 -112.941406 45.113281 -113.921875 51.25 -113.921875 Z M 51.25 -98.53125 C 44.375 -98.53125 38.765625 -96.253906 34.421875 -91.703125 C 32.628906 -89.691406 31.226562 -87.390625 30.21875 -84.796875 C 29.21875 -82.210938 28.554688 -78.722656 28.234375 -74.328125 C 27.921875 -69.941406 27.765625 -63.992188 27.765625 -56.484375 C 27.765625 -49.078125 27.921875 -43.175781 28.234375 -38.78125 C 28.554688 -34.394531 29.21875 -30.90625 30.21875 -28.3125 C 31.226562 -25.726562 32.628906 -23.429688 34.421875 -21.421875 C 38.867188 -16.765625 44.476562 -14.4375 51.25 -14.4375 C 58.019531 -14.4375 63.625 -16.765625 68.0625 -21.421875 C 69.96875 -23.429688 71.394531 -25.703125 72.34375 -28.234375 C 73.300781 -30.773438 73.9375 -34.265625 74.25 -38.703125 C 74.570312 -43.148438 74.734375 -49.078125 74.734375 -56.484375 C 74.734375 -63.992188 74.570312 -69.941406 74.25 -74.328125 C 73.9375 -78.722656 73.300781 -82.238281 72.34375 -84.875 C 71.394531 -87.519531 69.96875 -89.796875 68.0625 -91.703125 C 63.726562 -96.253906 58.125 -98.53125 51.25 -98.53125 Z M 51.25 -98.53125 "/></g></g></g><g fill="#000000" fill-opacity="1"><g transform="translate(1027.632969, 120.669846)"><g><path d="M 46.328125 -113.921875 C 53.835938 -113.921875 60.34375 -112.914062 65.84375 -110.90625 C 71.34375 -108.894531 76.523438 -105.613281 81.390625 -101.0625 L 70.609375 -90.28125 C 67.109375 -93.664062 63.296875 -95.960938 59.171875 -97.171875 C 55.046875 -98.390625 50.550781 -99 45.6875 -99 C 39.03125 -99 33.953125 -97.359375 30.453125 -94.078125 C 26.960938 -90.804688 25.21875 -86.578125 25.21875 -81.390625 C 25.21875 -79.378906 25.535156 -77.445312 26.171875 -75.59375 C 26.804688 -73.75 27.863281 -72.191406 29.34375 -70.921875 C 30.832031 -69.648438 32.5 -68.617188 34.34375 -67.828125 C 36.195312 -67.035156 38.660156 -66.375 41.734375 -65.84375 L 55.21875 -63.78125 C 60.394531 -63.039062 64.566406 -62.007812 67.734375 -60.6875 C 70.910156 -59.363281 73.71875 -57.59375 76.15625 -55.375 C 82.289062 -49.769531 85.359375 -42.046875 85.359375 -32.203125 C 85.359375 -25.328125 83.640625 -19.40625 80.203125 -14.4375 C 76.765625 -9.46875 71.976562 -5.660156 65.84375 -3.015625 C 59.707031 -0.367188 52.671875 0.953125 44.734375 0.953125 C 36.273438 0.953125 28.875 -0.15625 22.53125 -2.375 C 16.1875 -4.601562 10.265625 -8.46875 4.765625 -13.96875 L 16.03125 -25.21875 C 20.15625 -21.09375 24.59375 -18.238281 29.34375 -16.65625 C 34.101562 -15.070312 39.34375 -14.28125 45.0625 -14.28125 C 52.570312 -14.28125 58.332031 -15.8125 62.34375 -18.875 C 66.363281 -21.945312 68.375 -26.234375 68.375 -31.734375 C 68.375 -34.265625 68.03125 -36.507812 67.34375 -38.46875 C 66.65625 -40.425781 65.519531 -42.09375 63.9375 -43.46875 C 61.1875 -45.90625 57.0625 -47.492188 51.5625 -48.234375 L 38.234375 -50.140625 C 33.679688 -50.878906 29.609375 -51.988281 26.015625 -53.46875 C 22.421875 -54.945312 19.40625 -56.847656 16.96875 -59.171875 C 11.363281 -64.253906 8.5625 -71.503906 8.5625 -80.921875 C 8.5625 -87.472656 10.066406 -93.234375 13.078125 -98.203125 C 16.097656 -103.179688 20.4375 -107.046875 26.09375 -109.796875 C 31.757812 -112.546875 38.503906 -113.921875 46.328125 -113.921875 Z M 46.328125 -113.921875 "/></g></g></g></g></g></g></g></g></svg>
